<svg xmlns="http://www.w3.org/2000/svg" viewBox="0 0 120 280" width="120" height="280">
  <!-- BF1: High body fat — round torso, thick waist, soft limbs -->
  <g fill="#000" fill-rule="evenodd">
    <!-- Head -->
    <ellipse cx="60" cy="24" rx="16" ry="18"/>
    <!-- Neck -->
    <rect x="51" y="42" width="18" height="10" rx="4"/>
    <!-- Torso: wide, round belly -->
    <path d="M34,52 C30,52 26,58 26,68 L24,120 C22,138 24,150 28,158 L32,162 C34,164 36,164 38,164 L82,164 C84,164 86,164 88,162 L92,158 C96,150 98,138 96,120 L94,68 C94,58 90,52 86,52 Z"/>
    <!-- Left arm -->
    <path d="M26,58 C20,60 16,68 14,80 L10,120 C8,132 10,136 14,138 L18,138 C22,136 24,132 24,124 L26,80 Z"/>
    <!-- Right arm -->
    <path d="M94,58 C100,60 104,68 106,80 L110,120 C112,132 110,136 106,138 L102,138 C98,136 96,132 96,124 L94,80 Z"/>
    <!-- Left leg -->
    <path d="M36,164 L32,220 C30,240 30,252 32,260 L36,268 C38,270 42,270 44,268 L48,260 C50,252 50,240 48,220 L52,164 Z"/>
    <!-- Right leg -->
    <path d="M68,164 L72,220 C74,240 74,252 72,260 L76,268 C78,270 82,270 84,268 L88,260 C90,252 90,240 88,220 L84,164 Z"/>
  </g>
</svg>
