<svg xmlns="http://www.w3.org/2000/svg" viewBox="0 0 120 280" width="120" height="280">
  <!-- BF2: Overweight but slightly improved — less round, still soft -->
  <g fill="#000" fill-rule="evenodd">
    <!-- Head -->
    <ellipse cx="60" cy="24" rx="15" ry="17"/>
    <!-- Neck -->
    <rect x="52" y="41" width="16" height="10" rx="3"/>
    <!-- Torso: moderately wide, softer midsection -->
    <path d="M36,51 C32,51 28,57 27,66 L25,115 C24,132 26,144 30,152 L34,158 C36,160 38,160 40,160 L80,160 C82,160 84,160 86,158 L90,152 C94,144 96,132 95,115 L93,66 C93,57 89,51 84,51 Z"/>
    <!-- Left arm -->
    <path d="M28,56 C22,58 18,66 16,76 L13,116 C11,128 13,132 16,134 L20,134 C24,132 25,128 25,120 L27,76 Z"/>
    <!-- Right arm -->
    <path d="M92,56 C98,58 102,66 104,76 L107,116 C109,128 107,132 104,134 L100,134 C96,132 95,128 95,120 L93,76 Z"/>
    <!-- Left leg -->
    <path d="M38,160 L35,216 C33,236 34,248 36,256 L39,266 C40,268 44,268 45,266 L48,256 C50,248 49,236 47,216 L52,160 Z"/>
    <!-- Right leg -->
    <path d="M68,160 L73,216 C75,236 74,248 72,256 L75,266 C76,268 80,268 81,266 L84,256 C86,248 85,236 83,216 L80,160 Z"/>
  </g>
</svg>
