<svg xmlns="http://www.w3.org/2000/svg" viewBox="0 0 120 280" width="120" height="280">
  <!-- BF4: Lean body — visible waist definition, tapered torso -->
  <g fill="#000" fill-rule="evenodd">
    <!-- Head -->
    <ellipse cx="60" cy="23" rx="14" ry="17"/>
    <!-- Neck -->
    <rect x="53" y="40" width="14" height="10" rx="3"/>
    <!-- Torso: lean, defined waist taper -->
    <path d="M40,50 C37,50 34,54 33,60 L33,105 C33,120 34,132 37,140 L40,148 C41,150 43,150 45,150 L75,150 C77,150 79,150 80,148 L83,140 C86,132 87,120 87,105 L87,60 C87,54 84,50 80,50 Z"/>
    <!-- Left arm -->
    <path d="M33,54 C28,56 24,61 23,70 L21,108 C20,118 21,122 24,124 L26,124 C29,122 30,118 30,112 L32,70 Z"/>
    <!-- Right arm -->
    <path d="M87,54 C92,56 96,61 97,70 L99,108 C100,118 99,122 96,124 L94,124 C91,122 90,118 90,112 L88,70 Z"/>
    <!-- Left leg -->
    <path d="M42,150 L40,208 C39,228 40,244 41,252 L43,262 C44,264 46,264 47,262 L49,252 C50,244 50,228 49,208 L52,150 Z"/>
    <!-- Right leg -->
    <path d="M68,150 L71,208 C72,228 71,244 70,252 L73,262 C74,264 76,264 77,262 L79,252 C80,244 79,228 78,208 L75,150 Z"/>
  </g>
</svg>
