<svg xmlns="http://www.w3.org/2000/svg" viewBox="0 0 120 280" width="120" height="280">
  <!-- BF5: Very lean athletic body — narrow waist, V-taper, athletic -->
  <g fill="#000" fill-rule="evenodd">
    <!-- Head -->
    <ellipse cx="60" cy="23" rx="14" ry="17"/>
    <!-- Neck -->
    <rect x="53" y="40" width="14" height="10" rx="3"/>
    <!-- Torso: very lean, strong V-taper, narrow waist -->
    <path d="M42,50 C39,50 36,53 35,58 L36,102 C36,116 37,128 40,136 L43,144 C44,146 46,146 48,146 L72,146 C74,146 76,146 77,144 L80,136 C83,128 84,116 84,102 L85,58 C85,53 82,50 78,50 Z"/>
    <!-- Left arm -->
    <path d="M35,54 C30,55 26,60 25,68 L24,106 C23,116 24,120 26,122 L28,122 C30,120 31,116 31,110 L33,68 Z"/>
    <!-- Right arm -->
    <path d="M85,54 C90,55 94,60 95,68 L96,106 C97,116 96,120 94,122 L92,122 C90,120 89,116 89,110 L87,68 Z"/>
    <!-- Left leg -->
    <path d="M44,146 L43,206 C42,226 43,242 44,250 L46,260 C47,262 49,262 50,260 L52,250 C53,242 52,226 51,206 L53,146 Z"/>
    <!-- Right leg -->
    <path d="M67,146 L69,206 C70,226 69,242 68,250 L71,260 C72,262 74,262 75,260 L77,250 C78,242 77,226 76,206 L74,146 Z"/>
  </g>
</svg>
